<mxfile host="app.diagrams.net" modified="2023-02-15T07:56:15.154Z" agent="5.0 (Windows NT 10.0; Win64; x64) AppleWebKit/537.36 (KHTML, like Gecko) Chrome/110.0.0.0 Safari/537.36" etag="PkgTG92jherjBezQsGt_" version="20.8.20" type="github">
  <diagram name="Page-1" id="XaOnVoo_b1yvlYfC4CzB">
    <mxGraphModel dx="1434" dy="782" grid="0" gridSize="10" guides="1" tooltips="1" connect="1" arrows="1" fold="1" page="1" pageScale="1" pageWidth="1169" pageHeight="827" math="0" shadow="0">
      <root>
        <mxCell id="0" />
        <mxCell id="1" parent="0" />
        <mxCell id="zfQq_avG-bBHoIgWDMuL-9" value="" style="whiteSpace=wrap;html=1;aspect=fixed;rounded=1;" vertex="1" parent="1">
          <mxGeometry x="242" y="26" width="710" height="710" as="geometry" />
        </mxCell>
        <mxCell id="zfQq_avG-bBHoIgWDMuL-10" value="Login" style="ellipse;whiteSpace=wrap;html=1;align=center;rounded=1;fillColor=#A8DADC;strokeColor=#6c8ebf;" vertex="1" parent="1">
          <mxGeometry x="529" y="343" width="100" height="40" as="geometry" />
        </mxCell>
        <mxCell id="zfQq_avG-bBHoIgWDMuL-11" value="Sign UP" style="ellipse;whiteSpace=wrap;html=1;align=center;rounded=1;fillColor=#A8DADC;strokeColor=#6c8ebf;" vertex="1" parent="1">
          <mxGeometry x="535" y="397" width="100" height="40" as="geometry" />
        </mxCell>
        <mxCell id="zfQq_avG-bBHoIgWDMuL-12" value="Logout" style="ellipse;whiteSpace=wrap;html=1;align=center;rounded=1;fillColor=#A8DADC;strokeColor=#6c8ebf;" vertex="1" parent="1">
          <mxGeometry x="535" y="461" width="100" height="40" as="geometry" />
        </mxCell>
        <mxCell id="zfQq_avG-bBHoIgWDMuL-13" value="Upload MRI" style="ellipse;whiteSpace=wrap;html=1;align=center;rounded=1;fillColor=#A8DADC;strokeColor=#6c8ebf;" vertex="1" parent="1">
          <mxGeometry x="390" y="110" width="100" height="40" as="geometry" />
        </mxCell>
        <mxCell id="zfQq_avG-bBHoIgWDMuL-17" value="" style="edgeStyle=orthogonalEdgeStyle;rounded=0;orthogonalLoop=1;jettySize=auto;html=1;strokeColor=#457B9D;strokeWidth=3;" edge="1" parent="1" source="zfQq_avG-bBHoIgWDMuL-14" target="zfQq_avG-bBHoIgWDMuL-16">
          <mxGeometry relative="1" as="geometry">
            <Array as="points">
              <mxPoint x="560" y="80" />
              <mxPoint x="560" y="80" />
            </Array>
          </mxGeometry>
        </mxCell>
        <mxCell id="zfQq_avG-bBHoIgWDMuL-14" value="Send Instructions" style="ellipse;whiteSpace=wrap;html=1;align=center;rounded=1;fillColor=#A8DADC;strokeColor=#6c8ebf;" vertex="1" parent="1">
          <mxGeometry x="390" y="60" width="100" height="40" as="geometry" />
        </mxCell>
        <mxCell id="zfQq_avG-bBHoIgWDMuL-15" value="Create Events" style="ellipse;whiteSpace=wrap;html=1;align=center;rounded=1;fillColor=#A8DADC;strokeColor=#6c8ebf;" vertex="1" parent="1">
          <mxGeometry x="390" y="165" width="100" height="40" as="geometry" />
        </mxCell>
        <mxCell id="zfQq_avG-bBHoIgWDMuL-16" value="Review Detections Results" style="ellipse;whiteSpace=wrap;html=1;align=center;rounded=1;fillColor=#A8DADC;strokeColor=#6c8ebf;" vertex="1" parent="1">
          <mxGeometry x="600" y="50" width="110" height="60" as="geometry" />
        </mxCell>
        <mxCell id="zfQq_avG-bBHoIgWDMuL-18" value="includes" style="text;strokeColor=none;align=center;fillColor=none;html=1;verticalAlign=middle;whiteSpace=wrap;rounded=0;" vertex="1" parent="1">
          <mxGeometry x="510" y="60" width="60" height="30" as="geometry" />
        </mxCell>
        <mxCell id="zfQq_avG-bBHoIgWDMuL-19" value="Review volunteer&amp;nbsp;" style="ellipse;whiteSpace=wrap;html=1;align=center;rounded=1;fillColor=#A8DADC;strokeColor=#6c8ebf;" vertex="1" parent="1">
          <mxGeometry x="390" y="210" width="100" height="40" as="geometry" />
        </mxCell>
        <mxCell id="zfQq_avG-bBHoIgWDMuL-21" value="&lt;h2&gt;&lt;b&gt;Doctor&lt;/b&gt;&lt;/h2&gt;" style="shape=umlActor;verticalLabelPosition=bottom;verticalAlign=top;html=1;fillColor=#A8DADC;" vertex="1" parent="1">
          <mxGeometry x="80" y="205" width="90" height="130" as="geometry" />
        </mxCell>
        <mxCell id="zfQq_avG-bBHoIgWDMuL-29" value="Make Video Chat" style="ellipse;whiteSpace=wrap;html=1;align=center;rounded=1;fillColor=#A8DADC;strokeColor=#6c8ebf;" vertex="1" parent="1">
          <mxGeometry x="535" y="525" width="100" height="40" as="geometry" />
        </mxCell>
        <mxCell id="zfQq_avG-bBHoIgWDMuL-32" value="create Tasks" style="ellipse;whiteSpace=wrap;html=1;align=center;rounded=1;fillColor=#A8DADC;strokeColor=#6c8ebf;" vertex="1" parent="1">
          <mxGeometry x="535" y="593" width="100" height="40" as="geometry" />
        </mxCell>
        <mxCell id="zfQq_avG-bBHoIgWDMuL-34" value="create support groups" style="ellipse;whiteSpace=wrap;html=1;align=center;rounded=1;fillColor=#A8DADC;strokeColor=#6c8ebf;" vertex="1" parent="1">
          <mxGeometry x="610" y="190" width="100" height="40" as="geometry" />
        </mxCell>
        <mxCell id="zfQq_avG-bBHoIgWDMuL-35" value="&lt;h3&gt;&lt;b&gt;Patient&lt;/b&gt;&lt;/h3&gt;" style="shape=umlActor;verticalLabelPosition=bottom;verticalAlign=top;html=1;fillColor=#A8DADC;" vertex="1" parent="1">
          <mxGeometry x="1040" y="210" width="90" height="130" as="geometry" />
        </mxCell>
        <mxCell id="zfQq_avG-bBHoIgWDMuL-38" value="&lt;h2&gt;&lt;b&gt;Carer&lt;/b&gt;&lt;/h2&gt;" style="shape=umlActor;verticalLabelPosition=bottom;verticalAlign=top;html=1;fillColor=#A8DADC;" vertex="1" parent="1">
          <mxGeometry x="1040" y="440" width="90" height="130" as="geometry" />
        </mxCell>
        <mxCell id="zfQq_avG-bBHoIgWDMuL-39" value="&lt;h2&gt;&lt;b&gt;Volunteer&lt;/b&gt;&lt;/h2&gt;" style="shape=umlActor;verticalLabelPosition=bottom;verticalAlign=top;html=1;fillColor=#A8DADC;" vertex="1" parent="1">
          <mxGeometry x="80" y="450" width="90" height="130" as="geometry" />
        </mxCell>
        <mxCell id="zfQq_avG-bBHoIgWDMuL-69" value="" style="endArrow=open;endFill=1;endSize=12;html=1;rounded=0;strokeColor=#457B9D;strokeWidth=3;exitX=1;exitY=0.3333333333333333;exitDx=0;exitDy=0;exitPerimeter=0;entryX=0;entryY=0.5;entryDx=0;entryDy=0;" edge="1" parent="1" source="zfQq_avG-bBHoIgWDMuL-21" target="zfQq_avG-bBHoIgWDMuL-14">
          <mxGeometry width="160" relative="1" as="geometry">
            <mxPoint x="188" y="244" as="sourcePoint" />
            <mxPoint x="348" y="244" as="targetPoint" />
            <Array as="points" />
          </mxGeometry>
        </mxCell>
        <mxCell id="zfQq_avG-bBHoIgWDMuL-70" value="" style="endArrow=open;endFill=1;endSize=12;html=1;rounded=0;strokeColor=#457B9D;strokeWidth=3;entryX=0;entryY=0.5;entryDx=0;entryDy=0;" edge="1" parent="1">
          <mxGeometry width="160" relative="1" as="geometry">
            <mxPoint x="176" y="248" as="sourcePoint" />
            <mxPoint x="388" y="132" as="targetPoint" />
            <Array as="points" />
          </mxGeometry>
        </mxCell>
        <mxCell id="zfQq_avG-bBHoIgWDMuL-72" value="" style="endArrow=open;endFill=1;endSize=12;html=1;rounded=0;strokeColor=#457B9D;strokeWidth=3;entryX=0;entryY=0.5;entryDx=0;entryDy=0;" edge="1" parent="1" target="zfQq_avG-bBHoIgWDMuL-15">
          <mxGeometry width="160" relative="1" as="geometry">
            <mxPoint x="179" y="246" as="sourcePoint" />
            <mxPoint x="398" y="142" as="targetPoint" />
            <Array as="points" />
          </mxGeometry>
        </mxCell>
        <mxCell id="zfQq_avG-bBHoIgWDMuL-73" value="" style="endArrow=open;endFill=1;endSize=12;html=1;rounded=0;strokeColor=#457B9D;strokeWidth=3;entryX=0;entryY=0.5;entryDx=0;entryDy=0;" edge="1" parent="1">
          <mxGeometry width="160" relative="1" as="geometry">
            <mxPoint x="171" y="252" as="sourcePoint" />
            <mxPoint x="392" y="230" as="targetPoint" />
            <Array as="points" />
          </mxGeometry>
        </mxCell>
        <mxCell id="zfQq_avG-bBHoIgWDMuL-75" value="" style="endArrow=open;endFill=1;endSize=12;html=1;rounded=0;strokeColor=#457B9D;strokeWidth=3;entryX=0;entryY=0.5;entryDx=0;entryDy=0;exitX=0.911;exitY=0.348;exitDx=0;exitDy=0;exitPerimeter=0;" edge="1" parent="1" source="zfQq_avG-bBHoIgWDMuL-21" target="zfQq_avG-bBHoIgWDMuL-10">
          <mxGeometry width="160" relative="1" as="geometry">
            <mxPoint x="181" y="261" as="sourcePoint" />
            <mxPoint x="400" y="291" as="targetPoint" />
            <Array as="points" />
          </mxGeometry>
        </mxCell>
        <mxCell id="zfQq_avG-bBHoIgWDMuL-76" value="" style="endArrow=open;endFill=1;endSize=12;html=1;rounded=0;strokeColor=#457B9D;strokeWidth=3;entryX=0;entryY=0.5;entryDx=0;entryDy=0;exitX=0.9;exitY=0.348;exitDx=0;exitDy=0;exitPerimeter=0;" edge="1" parent="1" source="zfQq_avG-bBHoIgWDMuL-21">
          <mxGeometry width="160" relative="1" as="geometry">
            <mxPoint x="168" y="306.5" as="sourcePoint" />
            <mxPoint x="535" y="419.5" as="targetPoint" />
            <Array as="points" />
          </mxGeometry>
        </mxCell>
        <mxCell id="zfQq_avG-bBHoIgWDMuL-77" value="" style="endArrow=open;endFill=1;endSize=12;html=1;rounded=0;strokeColor=#457B9D;strokeWidth=3;entryX=0;entryY=0.5;entryDx=0;entryDy=0;" edge="1" parent="1">
          <mxGeometry width="160" relative="1" as="geometry">
            <mxPoint x="165" y="249" as="sourcePoint" />
            <mxPoint x="537" y="483.5" as="targetPoint" />
            <Array as="points" />
          </mxGeometry>
        </mxCell>
        <mxCell id="zfQq_avG-bBHoIgWDMuL-79" value="" style="endArrow=open;endFill=1;endSize=12;html=1;rounded=0;strokeColor=#457B9D;strokeWidth=3;exitX=1;exitY=0.3333333333333333;exitDx=0;exitDy=0;exitPerimeter=0;entryX=0;entryY=0.5;entryDx=0;entryDy=0;" edge="1" parent="1" source="zfQq_avG-bBHoIgWDMuL-39" target="zfQq_avG-bBHoIgWDMuL-10">
          <mxGeometry width="160" relative="1" as="geometry">
            <mxPoint x="176" y="494" as="sourcePoint" />
            <mxPoint x="396" y="326" as="targetPoint" />
            <Array as="points" />
          </mxGeometry>
        </mxCell>
        <mxCell id="zfQq_avG-bBHoIgWDMuL-80" value="" style="endArrow=open;endFill=1;endSize=12;html=1;rounded=0;strokeColor=#457B9D;strokeWidth=3;entryX=0;entryY=0.5;entryDx=0;entryDy=0;" edge="1" parent="1" target="zfQq_avG-bBHoIgWDMuL-11">
          <mxGeometry width="160" relative="1" as="geometry">
            <mxPoint x="174" y="493" as="sourcePoint" />
            <mxPoint x="539" y="373" as="targetPoint" />
            <Array as="points" />
          </mxGeometry>
        </mxCell>
        <mxCell id="zfQq_avG-bBHoIgWDMuL-81" value="" style="endArrow=open;endFill=1;endSize=12;html=1;rounded=0;strokeColor=#457B9D;strokeWidth=3;entryX=0;entryY=0.5;entryDx=0;entryDy=0;" edge="1" parent="1">
          <mxGeometry width="160" relative="1" as="geometry">
            <mxPoint x="179" y="497" as="sourcePoint" />
            <mxPoint x="535" y="482" as="targetPoint" />
            <Array as="points" />
          </mxGeometry>
        </mxCell>
        <mxCell id="zfQq_avG-bBHoIgWDMuL-82" value="" style="endArrow=open;endFill=1;endSize=12;html=1;rounded=0;strokeColor=#457B9D;strokeWidth=3;entryX=0;entryY=0.5;entryDx=0;entryDy=0;" edge="1" parent="1">
          <mxGeometry width="160" relative="1" as="geometry">
            <mxPoint x="176" y="498" as="sourcePoint" />
            <mxPoint x="535" y="545" as="targetPoint" />
            <Array as="points" />
          </mxGeometry>
        </mxCell>
        <mxCell id="zfQq_avG-bBHoIgWDMuL-83" value="" style="endArrow=open;endFill=1;endSize=12;html=1;rounded=0;strokeColor=#457B9D;strokeWidth=3;entryX=1;entryY=0.5;entryDx=0;entryDy=0;" edge="1" parent="1" target="zfQq_avG-bBHoIgWDMuL-34">
          <mxGeometry width="160" relative="1" as="geometry">
            <mxPoint x="1037" y="249" as="sourcePoint" />
            <mxPoint x="1042" y="379" as="targetPoint" />
            <Array as="points" />
          </mxGeometry>
        </mxCell>
        <mxCell id="zfQq_avG-bBHoIgWDMuL-84" value="" style="endArrow=open;endFill=1;endSize=12;html=1;rounded=0;strokeColor=#457B9D;strokeWidth=3;entryX=1;entryY=0.5;entryDx=0;entryDy=0;exitX=0;exitY=0.3333333333333333;exitDx=0;exitDy=0;exitPerimeter=0;" edge="1" parent="1" source="zfQq_avG-bBHoIgWDMuL-35" target="zfQq_avG-bBHoIgWDMuL-10">
          <mxGeometry width="160" relative="1" as="geometry">
            <mxPoint x="1047" y="259" as="sourcePoint" />
            <mxPoint x="720" y="220" as="targetPoint" />
            <Array as="points" />
          </mxGeometry>
        </mxCell>
        <mxCell id="zfQq_avG-bBHoIgWDMuL-85" value="" style="endArrow=open;endFill=1;endSize=12;html=1;rounded=0;strokeColor=#457B9D;strokeWidth=3;entryX=1;entryY=0.5;entryDx=0;entryDy=0;" edge="1" parent="1" target="zfQq_avG-bBHoIgWDMuL-11">
          <mxGeometry width="160" relative="1" as="geometry">
            <mxPoint x="1035" y="252" as="sourcePoint" />
            <mxPoint x="639" y="373" as="targetPoint" />
            <Array as="points" />
          </mxGeometry>
        </mxCell>
        <mxCell id="zfQq_avG-bBHoIgWDMuL-86" value="" style="endArrow=open;endFill=1;endSize=12;html=1;rounded=0;strokeColor=#457B9D;strokeWidth=3;entryX=1;entryY=0.5;entryDx=0;entryDy=0;" edge="1" parent="1" target="zfQq_avG-bBHoIgWDMuL-12">
          <mxGeometry width="160" relative="1" as="geometry">
            <mxPoint x="1035" y="255" as="sourcePoint" />
            <mxPoint x="645" y="427" as="targetPoint" />
            <Array as="points" />
          </mxGeometry>
        </mxCell>
        <mxCell id="zfQq_avG-bBHoIgWDMuL-87" value="" style="endArrow=open;endFill=1;endSize=12;html=1;rounded=0;strokeColor=#457B9D;strokeWidth=3;entryX=1;entryY=0.5;entryDx=0;entryDy=0;" edge="1" parent="1" target="zfQq_avG-bBHoIgWDMuL-29">
          <mxGeometry width="160" relative="1" as="geometry">
            <mxPoint x="1035" y="254" as="sourcePoint" />
            <mxPoint x="645" y="491" as="targetPoint" />
            <Array as="points" />
          </mxGeometry>
        </mxCell>
        <mxCell id="zfQq_avG-bBHoIgWDMuL-88" value="" style="endArrow=open;endFill=1;endSize=12;html=1;rounded=0;strokeColor=#457B9D;strokeWidth=3;entryX=1;entryY=0.5;entryDx=0;entryDy=0;" edge="1" parent="1" target="zfQq_avG-bBHoIgWDMuL-32">
          <mxGeometry width="160" relative="1" as="geometry">
            <mxPoint x="1031" y="252" as="sourcePoint" />
            <mxPoint x="645" y="555" as="targetPoint" />
            <Array as="points" />
          </mxGeometry>
        </mxCell>
        <mxCell id="zfQq_avG-bBHoIgWDMuL-89" value="" style="endArrow=open;endFill=1;endSize=12;html=1;rounded=0;strokeColor=#457B9D;strokeWidth=3;exitX=0;exitY=0.3333333333333333;exitDx=0;exitDy=0;exitPerimeter=0;" edge="1" parent="1" source="zfQq_avG-bBHoIgWDMuL-38">
          <mxGeometry width="160" relative="1" as="geometry">
            <mxPoint x="1041" y="262" as="sourcePoint" />
            <mxPoint x="638" y="613" as="targetPoint" />
            <Array as="points" />
          </mxGeometry>
        </mxCell>
        <mxCell id="zfQq_avG-bBHoIgWDMuL-90" value="" style="endArrow=open;endFill=1;endSize=12;html=1;rounded=0;strokeColor=#457B9D;strokeWidth=3;exitX=0.211;exitY=0.354;exitDx=0;exitDy=0;exitPerimeter=0;entryX=1;entryY=0.5;entryDx=0;entryDy=0;" edge="1" parent="1" source="zfQq_avG-bBHoIgWDMuL-38" target="zfQq_avG-bBHoIgWDMuL-12">
          <mxGeometry width="160" relative="1" as="geometry">
            <mxPoint x="1050" y="493" as="sourcePoint" />
            <mxPoint x="648" y="623" as="targetPoint" />
            <Array as="points" />
          </mxGeometry>
        </mxCell>
        <mxCell id="zfQq_avG-bBHoIgWDMuL-91" value="" style="endArrow=open;endFill=1;endSize=12;html=1;rounded=0;strokeColor=#457B9D;strokeWidth=3;exitX=0.156;exitY=0.34;exitDx=0;exitDy=0;exitPerimeter=0;" edge="1" parent="1" source="zfQq_avG-bBHoIgWDMuL-38">
          <mxGeometry width="160" relative="1" as="geometry">
            <mxPoint x="1060" y="503" as="sourcePoint" />
            <mxPoint x="642" y="416" as="targetPoint" />
            <Array as="points" />
          </mxGeometry>
        </mxCell>
        <mxCell id="zfQq_avG-bBHoIgWDMuL-92" value="" style="endArrow=open;endFill=1;endSize=12;html=1;rounded=0;strokeColor=#457B9D;strokeWidth=3;exitX=0.333;exitY=0.333;exitDx=0;exitDy=0;exitPerimeter=0;entryX=1;entryY=0.5;entryDx=0;entryDy=0;" edge="1" parent="1" source="zfQq_avG-bBHoIgWDMuL-38" target="zfQq_avG-bBHoIgWDMuL-10">
          <mxGeometry width="160" relative="1" as="geometry">
            <mxPoint x="1064" y="494" as="sourcePoint" />
            <mxPoint x="652" y="426" as="targetPoint" />
            <Array as="points" />
          </mxGeometry>
        </mxCell>
      </root>
    </mxGraphModel>
  </diagram>
</mxfile>
